HIERARCHY
ROOT Bone
{
	OFFSET 0.000000 0.000000 0.000000
	CHANNELS 6 Xposition Yposition Zposition Xrotation Yrotation Zrotation
	JOINT Bone.001
	{
		OFFSET 4.175152 0.041580 -0.060209
		CHANNELS 3 Xrotation Yrotation Zrotation
		JOINT Bone.002
		{
			OFFSET 4.378860 -0.087824 0.028986
			CHANNELS 3 Xrotation Yrotation Zrotation
			JOINT Bone.003
			{
				OFFSET 4.579178 0.176567 -0.018694
				CHANNELS 3 Xrotation Yrotation Zrotation
				JOINT Bone.004
				{
					OFFSET 4.294247 -0.123779 0.088224
					CHANNELS 3 Xrotation Yrotation Zrotation
					JOINT Bone.005
					{
						OFFSET 4.402290 -0.144741 0.030350
						CHANNELS 3 Xrotation Yrotation Zrotation
						JOINT Bone.006
						{
							OFFSET 4.175339 -0.003525 -0.061349
							CHANNELS 3 Xrotation Yrotation Zrotation
							JOINT Bone.007
							{
								OFFSET 4.386326 0.046515 0.030705
								CHANNELS 3 Xrotation Yrotation Zrotation
								JOINT Bone.008
								{
									OFFSET 4.571529 0.087329 -0.019274
									CHANNELS 3 Xrotation Yrotation Zrotation
									JOINT Bone.009
									{
										OFFSET 4.294243 -0.123781 0.088224
										CHANNELS 3 Xrotation Yrotation Zrotation
										End Site
										{
											OFFSET 4.296776 0.017534 0.033008
										}
									}
								}
							}
						}
					}
				}
			}
		}
	}
}
MOTION
Frames: 25
Frame Time: 0.041667
0.000000 0.000000 0.000000 -0.005929 0.021681 0.121314 -0.002757 0.014041 0.087778 -0.013835 0.025377 0.151769 -0.005046 0.021964 0.150578 -0.000176 0.001689 0.010576 0.000143 -0.000711 -0.004005 0.005994 -0.014172 -0.089254 0.002850 -0.007111 -0.041983 0.000341 -0.001491 -0.010237 0.000945 -0.002483 -0.015685 
0.000000 0.000000 0.000000 -0.023155 0.083687 0.468627 -0.010770 0.054198 0.339047 -0.053818 0.097790 0.586384 -0.019813 0.084778 0.581755 -0.000682 0.006527 0.040844 0.000669 -0.003379 -0.018808 0.023271 -0.055370 -0.348363 0.011214 -0.028058 -0.165639 0.001451 -0.006354 -0.043604 0.003789 -0.009973 -0.062959 
0.000000 0.000000 0.000000 -0.051115 0.181393 1.017152 -0.023779 0.117523 0.735753 -0.118097 0.211583 1.273047 -0.044102 0.183754 1.262900 -0.001486 0.014152 0.088616 0.001728 -0.008723 -0.048591 0.050624 -0.121667 -0.764396 0.024772 -0.062315 -0.367527 0.003454 -0.015185 -0.104091 0.008538 -0.022523 -0.142147 
0.000000 0.000000 0.000000 -0.089506 0.310095 1.742150 -0.041636 0.201051 1.259872 -0.205169 0.360824 2.181117 -0.078018 0.314166 2.163510 -0.002558 0.024209 0.151705 0.003461 -0.017517 -0.097534 0.086687 -0.211239 -1.324468 0.043159 -0.109348 -0.644210 0.006471 -0.028552 -0.195686 0.015193 -0.040202 -0.253578 
0.000000 0.000000 0.000000 -0.138099 0.465042 2.618875 -0.064237 0.301787 1.893371 -0.313645 0.539496 3.279917 -0.121778 0.471181 3.253043 -0.003867 0.036369 0.227921 0.006007 -0.030519 -0.169821 0.129991 -0.322289 -2.015706 0.065966 -0.168616 -0.992249 0.010609 -0.047060 -0.322379 0.023741 -0.063050 -0.397577 
0.000000 0.000000 0.000000 -0.196609 0.641453 3.622492 -0.091458 0.416706 2.618177 -0.442043 0.741480 4.538587 -0.175542 0.649911 4.500771 -0.005384 0.050268 0.315078 0.009495 -0.048461 -0.269633 0.179004 -0.452997 -2.825223 0.092754 -0.239657 -1.408218 0.015962 -0.071292 -0.488168 0.034163 -0.091169 -0.574472 
0.000000 0.000000 0.000000 -0.264619 0.834509 4.728004 -0.123104 0.542811 3.416166 -0.588620 0.960710 5.925968 -0.239268 0.845407 5.875704 -0.007078 0.065557 0.410991 0.014045 -0.072113 -0.401156 0.232174 -0.601558 -3.740080 0.123055 -0.321957 -1.888691 0.022606 -0.101832 -0.697042 0.046431 -0.124598 -0.784595 
0.000000 0.000000 0.000000 -0.341442 1.039421 5.910285 -0.158866 0.677090 4.269162 -0.751226 1.191167 7.410561 -0.312600 1.052735 7.346536 -0.008916 0.081896 0.513463 0.019757 -0.102251 -0.568573 0.287968 -0.766095 -4.747322 0.156382 -0.415021 -2.430236 0.030596 -0.139294 -0.953009 0.060505 -0.163426 -1.028268 
0.000000 0.000000 0.000000 -0.426075 1.251448 7.144007 -0.198292 0.816545 5.158917 -0.927226 1.427071 8.960531 -0.394773 1.266997 8.881685 -0.010864 0.098921 0.620318 0.026715 -0.139610 -0.776078 0.344914 -0.944683 -5.833896 0.192234 -0.518369 -3.029436 0.039961 -0.184283 -1.260065 0.076335 -0.207734 -1.305829 
0.000000 0.000000 0.000000 -0.517161 1.465940 8.403733 -0.240759 0.958237 6.067139 -1.113437 1.662898 10.543775 -0.484560 1.483373 10.449316 -0.012885 0.116294 0.729351 0.034975 -0.184989 -1.027851 0.401625 -1.135326 -6.986696 0.230102 -0.631505 -3.682890 0.050696 -0.237407 -1.622229 0.093861 -0.257591 -1.617599 
0.000000 0.000000 0.000000 -0.612949 1.678370 9.663940 -0.285470 1.099245 6.975502 -1.306120 1.893501 12.127972 -0.580242 1.697218 12.017438 -0.014937 0.133676 0.838396 0.044566 -0.239151 -1.328091 0.456839 -1.335940 -8.192575 0.269472 -0.753931 -4.387164 0.062761 -0.299295 -2.043500 0.113012 -0.313083 -1.963919 
0.000000 0.000000 0.000000 -0.711317 1.884399 10.899025 -0.331442 1.236685 7.865681 -1.501002 2.114127 13.680746 -0.679626 1.904077 13.554046 -0.016982 0.150684 0.945245 0.055476 -0.302864 -1.681003 0.509437 -1.544375 -9.438323 0.309835 -0.885124 -5.138874 0.076072 -0.370558 -2.527901 0.133705 -0.374294 -2.345100 
0.000000 0.000000 0.000000 -0.809775 2.079865 12.083447 -0.377526 1.367787 8.719344 -1.693345 2.320549 15.169722 -0.780057 2.099755 15.027174 -0.018972 0.167008 1.047729 0.067650 -0.376929 -2.090732 0.558477 -1.758412 -10.710736 0.350687 -1.024588 -5.934613 0.090493 -0.451845 -3.079435 0.155843 -0.441333 -2.761500 
0.000000 0.000000 0.000000 -0.905514 2.260816 13.191710 -0.422409 1.489808 9.518188 -1.878003 2.508952 16.562714 -0.878499 2.280323 16.405040 -0.020861 0.182273 1.143644 0.080985 -0.462146 -2.561516 0.603197 -1.975762 -11.996570 0.391539 -1.171777 -6.770991 0.105834 -0.543781 -3.702105 0.179319 -0.514269 -3.213425 
0.000000 0.000000 0.000000 -0.995482 2.423488 14.198418 -0.464653 1.600106 10.243961 -2.049552 2.676021 17.827700 -0.971600 2.442123 17.656073 -0.022600 0.196145 1.230804 0.095315 -0.559286 -3.097516 0.643040 -2.194102 -13.282648 0.431916 -1.326156 -7.644615 0.121838 -0.646991 -4.399906 0.204015 -0.593199 -3.701203 
0.000000 0.000000 0.000000 -1.076422 2.564305 15.078363 -0.502723 1.696065 10.878464 -2.202377 2.818812 18.932984 -1.055793 2.581740 18.749001 -0.024139 0.208275 1.307026 0.110407 -0.669166 -3.702899 0.677645 -2.411071 -14.555825 0.471364 -1.487169 -8.552102 0.138177 -0.762127 -5.176808 0.229793 -0.678215 -4.225160 
0.000000 0.000000 0.000000 -1.145019 2.679827 15.806318 -0.535026 1.775143 11.403511 -2.330788 2.934606 19.847068 -1.127406 2.695928 19.652770 -0.025425 0.218313 1.370128 0.125949 -0.792581 -4.381828 0.706863 -2.624288 -15.803026 0.509457 -1.654225 -9.490102 0.154442 -0.889815 -6.036771 0.256507 -0.769417 -4.785624 
0.000000 0.000000 0.000000 -1.197886 2.766655 16.357299 -0.559960 1.834798 11.800978 -2.429139 3.020810 20.538655 -1.182769 2.781538 20.336490 -0.026405 0.225919 1.417912 0.141549 -0.930320 -5.138423 0.730731 -2.831395 -17.011281 0.545797 -1.826755 -10.455278 0.170132 -1.030679 -6.983687 0.283995 -0.866908 -5.382886 
0.000000 0.000000 0.000000 -1.231803 2.821369 16.706260 -0.575967 1.872499 12.052760 -2.491942 3.074775 20.976564 -1.218345 2.835400 20.769398 -0.027030 0.230736 1.448195 0.156705 -1.083178 -5.976783 0.749480 -3.030020 -18.167748 0.580014 -2.004159 -11.444283 0.184650 -1.185324 -8.021384 0.312079 -0.970756 -6.017283 
0.000000 0.000000 0.000000 -1.243727 2.840430 16.828153 -0.581598 1.885646 12.140728 -2.513972 3.093510 21.129521 -1.230865 2.854135 20.920598 -0.027250 0.232419 1.458786 0.170823 -1.251910 -6.900950 0.763492 -3.217854 -19.259636 0.611781 -2.185823 -12.453796 0.197291 -1.354336 -9.153645 0.340565 -1.081091 -6.689102 
0.000000 0.000000 0.000000 -1.243727 2.840430 16.828153 -0.581598 1.885646 12.140728 -2.513972 3.093510 21.129521 -1.230865 2.854135 20.920598 -0.025670 0.220216 1.382077 0.183157 -1.436918 -7.912979 0.773320 -3.393017 -20.276837 0.640801 -2.371108 -13.480450 0.207232 -1.538031 -10.382774 0.369211 -1.197797 -7.397701 
0.000000 0.000000 0.000000 -1.243727 2.840430 16.828153 -0.581598 1.885646 12.140728 -2.513972 3.093510 21.129521 -1.230865 2.854135 20.920598 -0.021236 0.185274 1.162476 0.192786 -1.636425 -9.003277 0.779646 -3.555456 -21.219497 0.666763 -2.558945 -14.518556 0.213503 -1.734853 -11.698516 0.397576 -1.320024 -8.137481 
0.000000 0.000000 0.000000 -1.243727 2.840430 16.828153 -0.581598 1.885646 12.140728 -2.513972 3.093510 21.129521 -1.230865 2.854135 20.920598 -0.014510 0.130065 0.815791 0.198842 -1.847920 -10.158280 0.783110 -3.705548 -22.090225 0.689412 -2.748083 -15.561433 0.215216 -1.942405 -13.085528 0.425204 -1.446600 -8.901254 
0.000000 0.000000 0.000000 -1.243727 2.840430 16.828153 -0.581598 1.885646 12.140728 -2.513972 3.093510 21.129521 -1.230865 2.854135 20.920598 -0.006137 0.057086 0.357822 0.200613 -2.068828 -11.364357 0.784280 -3.843691 -22.891610 0.708579 -2.937211 -16.602312 0.211662 -2.158265 -14.528308 0.451695 -1.576323 -9.681814 
0.000000 0.000000 0.000000 -1.243727 2.840430 16.828153 -0.581598 1.885646 12.140728 -2.513972 3.093510 21.129521 -1.230865 2.854135 20.920598 0.003203 -0.031208 -0.195619 0.197567 -2.296514 -12.607710 0.783647 -3.970317 -23.626203 0.724184 -3.125038 -17.634379 0.202345 -2.379908 -16.011155 0.476709 -1.707985 -10.471908 
